# xmcd
# Track frame offsets:
# 150
# 19316
# 40859
# 69145
# 93336
# 115746
# 130616
# 151906
# 171803
# 197312
# 220552
# 236062
# 253707
# 285131
#
# Disc length: 4052 seconds
# Revision: 0
# Processed by: cddbd v1.4PL0 Copyright (c) Steve Scherf et al.
# Submitted via: VisiTrax 2.9.7.197 - For more info visit www.synapsa.com
#
DISCID=a90fd20e
DTITLE=Various Artist - Hot Hits, Best of The Blues
DYEAR=1998
DGENRE=
TTITLE0=Bassett, Johnnie  and the blues insurgents - Raise the Roof, raise the R
TTITLE0=ent
TTITLE1=Allison, Luther - Give Me Back My Wig
TTITLE2=Otis, Rush - Keep On Lovin Me Baby
TTITLE3=Copeland, Shemekia - Turn The Heat Up
TTITLE4=Jones, Johnny - I was Raised on the Blues
TTITLE5=Magic Slim and The Teardrops - Wake Me up early
TTITLE6=Garner, Larry - PMS
TTITLE7=Kent, Willie - 3-6-9
TTITLE8=Clearwater, Eddy the Chief - Cool Blues Walk
TTITLE9=Little Charlie and the Nightcats - Never Trust a Women
TTITLE10=Hunter, Long John - Ride With Me
TTITLE11=Bell, Lurrie - Lonesome Guitar Man
TTITLE12=McCray, Larry - Worried Down With The Blues
TTITLE13=Scott, E.C. - Don't touch Me
EXTD=
EXTT0=
EXTT1=
EXTT2=
EXTT3=
EXTT4=
EXTT5=
EXTT6=
EXTT7=
EXTT8=
EXTT9=
EXTT10=
EXTT11=
EXTT12=
EXTT13=
PLAYORDER=
